<svg id="NEWS" xmlns="http://www.w3.org/2000/svg" xmlns:xlink="http://www.w3.org/1999/xlink" width="300" height="180" viewBox="0 0 300 180">
  <metadata><?xpacket begin="﻿" id="W5M0MpCehiHzreSzNTczkc9d"?>
<x:xmpmeta xmlns:x="adobe:ns:meta/" x:xmptk="Adobe XMP Core 5.6-c142 79.160924, 2017/07/13-01:06:39        ">
   <rdf:RDF xmlns:rdf="http://www.w3.org/1999/02/22-rdf-syntax-ns#">
      <rdf:Description rdf:about=""/>
   </rdf:RDF>
</x:xmpmeta>
                                                                                                    
                                                                                                    
                                                                                                    
                                                                                                    
                                                                                                    
                                                                                                    
                                                                                                    
                                                                                                    
                                                                                                    
                                                                                                    
                                                                                                    
                                                                                                    
                                                                                                    
                                                                                                    
                                                                                                    
                                                                                                    
                                                                                                    
                                                                                                    
                                                                                                    
                                                                                                    
                           
<?xpacket end="w"?></metadata>
<defs>
    <style>
      .cls-1 {
        fill: #0c7ca6;
      }

      .cls-1, .cls-2, .cls-3 {
        fill-rule: evenodd;
      }

      .cls-2 {
        fill: #00aeef;
      }

      .cls-3 {
        fill: #444;
        filter: url(#filter);
      }
    </style>
    <filter id="filter" x="46.625" y="40.188" width="184.469" height="57.906" filterUnits="userSpaceOnUse">
      <feGaussianBlur result="blur" stdDeviation="2.828" in="SourceAlpha"/>
      <feFlood result="flood" flood-opacity="0.34"/>
      <feComposite result="composite" operator="out" in2="blur"/>
      <feOffset result="offset" dx="-0.384" dy="10.993"/>
      <feComposite result="composite-2" operator="in" in2="SourceAlpha"/>
      <feBlend result="blend" mode="multiply" in2="SourceGraphic"/>
    </filter>
  </defs>
  <path id="Rectangle_7_copy" data-name="Rectangle 7 copy" class="cls-1" d="M15.568,36.182L16.049,22.4,203.194,42.14,287,120.029v14.147L26.357,154.859Z"/>
  <path class="cls-2" d="M15.568,21.987l189.206,5.959L287,119.982,27.937,140.664Z"/>
  <path id="NEWS-2" data-name="NEWS" class="cls-3" d="M68.778,40.529l6.974,22.637L60.007,40.4l-13.366-.2L59.4,98.107l16.2-.664L67.715,68.6l17.707,28.44,16.129-.662L81.586,40.721Zm40.331,55.54,29.973-1.228-6.034-12.488-12.022.333-5.637-12.761,9.867-.143L120.45,59.707l-9.557.038-4.169-9.437,9.894,0.056-4.4-9.184L87.91,40.816Zm46.078-54.246c4.887,10.215,10.881,21.594,18.147,34.317L159.456,56.647c-6.331-8.826-9.832-13.664-10.8-14.921l-13.891-.208c5.226,12.877,10.276,24.332,14.953,33.775L138.455,57.6,128.148,41.418l-13.559-.2,33.6,53.253,19.974-.819c-6.986-15.87-11.231-25.409-13.238-29.765,7.458,10.332,14.927,20.191,22.307,29.393l18.88-.775L167.649,42.011Zm50.124,11.79a45.488,45.488,0,0,0-6.964-7.3,23.378,23.378,0,0,0-7.105-3.478,31.3,31.3,0,0,0-9.088-1.465,13.777,13.777,0,0,0-6.583,1.123,3.423,3.423,0,0,0-2.064,3.463c0.125,1.525,1.379,3.989,3.808,7.442a34.419,34.419,0,0,0,5.363,6.115,29.4,29.4,0,0,0,5.437,3.867q2.643,1.413,9.963,4.557a102.853,102.853,0,0,1,9.707,4.523c1.539,0.921,3.493,2.923,5.9,6.052a9,9,0,0,1,1.864,3.309q0.2,1.144-1.169,1.189a4.1,4.1,0,0,1-2.58-.833,20.7,20.7,0,0,1-3.5-3.933l-4.812-6.415-12.61.227,2.445,3.468a61.523,61.523,0,0,0,8.032,9.577,30.852,30.852,0,0,0,20.931,7.6q5.11-.217,7.327-2.373a4.445,4.445,0,0,0,1.175-5c-0.656-1.892-2.547-4.757-5.62-8.538-4.1-5.043-7.718-8.58-10.937-10.721Q209.457,62.9,197.179,58.1a25.828,25.828,0,0,1-5.745-2.813,17.064,17.064,0,0,1-3.214-3.4,5.8,5.8,0,0,1-1.339-2.56q-0.047-.83,1.08-0.82a3.462,3.462,0,0,1,1.949.627,14.5,14.5,0,0,1,2.663,2.905l2.549,3.332,11.615,0.006Z"/>
</svg>
