<svg id="Projects" xmlns="http://www.w3.org/2000/svg" width="300" height="180" viewBox="0 0 300 180">
  <metadata><?xpacket begin="﻿" id="W5M0MpCehiHzreSzNTczkc9d"?>
<x:xmpmeta xmlns:x="adobe:ns:meta/" x:xmptk="Adobe XMP Core 5.6-c142 79.160924, 2017/07/13-01:06:39        ">
   <rdf:RDF xmlns:rdf="http://www.w3.org/1999/02/22-rdf-syntax-ns#">
      <rdf:Description rdf:about=""/>
   </rdf:RDF>
</x:xmpmeta>
                                                                                                    
                                                                                                    
                                                                                                    
                                                                                                    
                                                                                                    
                                                                                                    
                                                                                                    
                                                                                                    
                                                                                                    
                                                                                                    
                                                                                                    
                                                                                                    
                                                                                                    
                                                                                                    
                                                                                                    
                                                                                                    
                                                                                                    
                                                                                                    
                                                                                                    
                                                                                                    
                           
<?xpacket end="w"?></metadata>
<defs>
    <style>
      .cls-1 {
        fill: #00aeef;
      }

      .cls-1, .cls-2 {
        fill-rule: evenodd;
      }

      .cls-2 {
        fill: #fff;
      }
    </style>
  </defs>
  <path class="cls-1" d="M245.25,14.445l17.218,3.327c3.781,0.286,5.516,3.283,3.875,6.693L260.2,41.43a150.867,150.867,0,0,1-14.788,24.445c-28.251,38.077-75.889,62.612-123.483,59l-3.743-.283s-10.134-7.024-14.464-12.578-6.034-16.926-6.034-16.926l0.933-1.939c21.2-44.035,67.433-73.4,116.776-78.336A183.007,183.007,0,0,1,245.25,14.445Z"/>
  <path class="cls-1" d="M88.14,105.384a64.739,64.739,0,0,0,7.736,15.238,49.718,49.718,0,0,0,11.416,10.817l-7.836,13.243L16,177.981l57.123-69.122Z"/>
  <path class="cls-1" d="M225.736,91.85l-1.3,14.839c-0.43,4.916-3.853,10.359-7.645,12.155L138.967,155.7c-3.793,1.8-6.519-.735-6.089-5.651l1.3-14.839c0.43-4.919,3.853-10.36,7.646-12.156L219.647,86.2C223.439,84.4,226.166,86.933,225.736,91.85Z"/>
  <path id="Rectangle_5_copy" data-name="Rectangle 5 copy" class="cls-1" d="M82.8,67.722l13.071,7.2c4.332,2.385,10.769,2.585,14.378.446l74.066-43.894c3.609-2.139,3.024-5.807-1.308-8.193l-13.071-7.2c-4.331-2.387-10.769-2.586-14.378-.448L81.492,59.53C77.882,61.668,78.468,65.337,82.8,67.722Z"/>
  <path class="cls-2" d="M191.472,31.253c24.269-6.487,47.67-7.448,66.28-3.773-55.68,2.3-98.338,11.392-142.606,54.832C125,61.608,154.05,41.256,191.472,31.253Z"/>
</svg>
