<svg id="team" xmlns="http://www.w3.org/2000/svg" width="300" height="180" viewBox="0 0 300 180">
  <metadata><?xpacket begin="﻿" id="W5M0MpCehiHzreSzNTczkc9d"?>
<x:xmpmeta xmlns:x="adobe:ns:meta/" x:xmptk="Adobe XMP Core 5.6-c142 79.160924, 2017/07/13-01:06:39        ">
   <rdf:RDF xmlns:rdf="http://www.w3.org/1999/02/22-rdf-syntax-ns#">
      <rdf:Description rdf:about=""/>
   </rdf:RDF>
</x:xmpmeta>
                                                                                                    
                                                                                                    
                                                                                                    
                                                                                                    
                                                                                                    
                                                                                                    
                                                                                                    
                                                                                                    
                                                                                                    
                                                                                                    
                                                                                                    
                                                                                                    
                                                                                                    
                                                                                                    
                                                                                                    
                                                                                                    
                                                                                                    
                                                                                                    
                                                                                                    
                                                                                                    
                           
<?xpacket end="w"?></metadata>
<defs>
    <style>
      .cls-1 {
        fill: #00aeef;
        stroke-width: 0.417px;
      }

      .cls-1, .cls-2 {
        stroke: #00aeef;
        fill-rule: evenodd;
      }

      .cls-2 {
        fill: none;
        stroke-width: 10.417px;
      }
    </style>
  </defs>
  <g>
    <path class="cls-1" d="M150,87a50.021,50.021,0,0,1,47.46,34.223c-0.178,3.808,2.657,1.857-1.224,9.447-24.415-37.719-66.107-42.624-93.1.92-0.918-7.141-.971-4.181-0.682-10.116A50.024,50.024,0,0,1,150,87Z"/>
    <path class="cls-1" d="M64,103a49.9,49.9,0,0,1,38.778,18.434c0.689,2.937-.576,3.166.8,9.01-33.021-22.811-82.535-18.075-85.488,42.389A50.026,50.026,0,0,1,64,103Z"/>
    <path id="Ellipse_3_copy" data-name="Ellipse 3 copy" class="cls-1" d="M236,103a49.9,49.9,0,0,0-38.778,18.434c-0.689,2.937.576,3.166-.8,9.01,33.021-22.811,82.535-18.075,85.488,42.389A50.026,50.026,0,0,0,236,103Z"/>
  </g>
  <path class="cls-2" d="M150,14a20,20,0,0,1,20,20V64a20,20,0,0,1-40,0V34A20,20,0,0,1,150,14Z"/>
  <path id="Rectangle_4_copy" data-name="Rectangle 4 copy" class="cls-2" d="M64,29A20,20,0,0,1,84,49V79a20,20,0,0,1-40,0V49A20,20,0,0,1,64,29Z"/>
  <path id="Rectangle_4_copy_2" data-name="Rectangle 4 copy 2" class="cls-2" d="M238,29a20,20,0,0,1,20,20V79a20,20,0,0,1-40,0V49A20,20,0,0,1,238,29Z"/>
</svg>
